<?xml version="1.0" encoding="UTF-8"?>
<!DOCTYPE svg PUBLIC "-//W3C//DTD SVG 1.1//EN" "http://www.w3.org/Graphics/SVG/1.1/DTD/svg11.dtd">
<svg xmlns="http://www.w3.org/2000/svg" version="1.1" width="1130px" height="1130px" style="shape-rendering:geometricPrecision; text-rendering:geometricPrecision; image-rendering:optimizeQuality; fill-rule:evenodd; clip-rule:evenodd" xmlns:xlink="http://www.w3.org/1999/xlink">
<g><path style="opacity:1" fill="#010201" d="M 550.5,10.5 C 554.712,10.981 558.712,12.1477 562.5,14C 565.74,17.2328 568.573,20.7328 571,24.5C 572.133,46.4653 572.633,68.4653 572.5,90.5C 572.639,112.207 572.139,133.874 571,155.5C 563.487,169.368 552.653,172.701 538.5,165.5C 535.018,162.545 532.518,158.878 531,154.5C 530.333,111.5 530.333,68.5 531,25.5C 534.572,16.4864 541.072,11.4864 550.5,10.5 Z"/></g>
<g><path style="opacity:1" fill="#010201" d="M 369.5,105.5 C 375.852,105.304 381.352,107.304 386,111.5C 399.67,129.51 413.336,147.51 427,165.5C 430.742,176.094 428.576,185.094 420.5,192.5C 408.774,199.034 398.774,197.034 390.5,186.5C 378.55,170.233 366.383,154.233 354,138.5C 348.516,128.19 349.683,118.69 357.5,110C 361.271,107.603 365.271,106.103 369.5,105.5 Z"/></g>
<g><path style="opacity:1" fill="#010201" d="M 731.5,105.5 C 746.674,108.181 753.174,117.181 751,132.5C 749.815,134.377 748.815,136.377 748,138.5C 734.986,156.862 721.153,174.696 706.5,192C 693.575,199.31 683.075,196.81 675,184.5C 674.601,181.314 673.768,178.314 672.5,175.5C 673.511,171.792 674.677,168.126 676,164.5C 689.275,146.222 702.941,128.222 717,110.5C 721.461,107.442 726.294,105.775 731.5,105.5 Z"/></g>
<g><path style="opacity:1" fill="#010201" d="M 203.5,201.5 C 206.813,202.045 210.146,202.545 213.5,203C 248.822,223.982 284.155,244.982 319.5,266C 329.602,278.628 328.268,289.961 315.5,300C 308.833,302 302.167,302 295.5,300C 261.159,278.828 226.493,258.161 191.5,238C 185.286,230.896 183.453,223.063 186,214.5C 189.711,207.084 195.545,202.751 203.5,201.5 Z"/></g>
<g><path style="opacity:1" fill="#010201" d="M 894.5,201.5 C 911.822,202.257 919.322,211.257 917,228.5C 915.697,232.278 913.53,235.444 910.5,238C 875.392,258.904 840.226,279.738 805,300.5C 784.768,304.368 775.435,296.035 777,275.5C 779.037,270.464 782.204,266.298 786.5,263C 820.12,243.691 853.453,224.024 886.5,204C 889.251,203.057 891.917,202.224 894.5,201.5 Z"/></g>
<g><path style="opacity:1" fill="#010201" d="M 1032.5,441.5 C 1032.5,565.5 1032.5,689.5 1032.5,813.5C 1032.85,820.443 1032.18,827.277 1030.5,834C 1023.76,844.524 1014.43,847.691 1002.5,843.5C 1000.13,842.099 997.964,840.432 996,838.5C 993.717,834.954 991.884,831.287 990.5,827.5C 990.5,689.833 990.5,552.167 990.5,414.5C 870.63,414.811 749.297,414.978 626.5,415C 593.667,418.5 575.5,436.667 572,469.5C 571.232,546.003 571.399,622.503 572.5,699C 571.734,773.164 571.234,847.33 571,921.5C 565.41,933.039 556.243,937.206 543.5,934C 536.799,931.302 532.632,926.469 531,919.5C 530.667,767.167 530.333,614.833 530,462.5C 525.938,442.55 514.772,428.05 496.5,419C 490.087,416.464 483.421,415.131 476.5,415C 354.75,414.549 233.084,414.716 111.5,415.5C 110.5,593.832 110.167,772.165 110.5,950.5C 242.834,950.333 375.167,950.5 507.5,951C 524.272,954.421 538.939,961.921 551.5,973.5C 563.44,961.358 577.774,953.858 594.5,951C 672.166,950.5 749.833,950.333 827.5,950.5C 840.717,957.621 844.551,968.288 839,982.5C 833.346,990.042 825.846,993.042 816.5,991.5C 744.499,991.333 672.499,991.5 600.5,992C 581.7,997.313 572.034,1009.81 571.5,1029.5C 566.534,1045.25 556.368,1050.25 541,1044.5C 535.818,1041.58 532.485,1037.25 531,1031.5C 531.293,1010.68 521.46,997.518 501.5,992C 362.167,991.667 222.833,991.333 83.5,991C 77.0146,988.023 72.5146,983.19 70,976.5C 69.5,807.834 69.3333,639.167 69.5,470.5C 69.1669,443.159 69.5002,415.825 70.5,388.5C 72.9635,381.537 77.6302,376.703 84.5,374C 218.5,373.333 352.5,373.333 486.5,374C 512.668,378.146 534.168,390.313 551,410.5C 567.69,389.928 589.19,377.761 615.5,374C 749.5,373.333 883.5,373.333 1017.5,374C 1023.55,376.05 1028.05,379.884 1031,385.5C 1032.42,404.125 1032.92,422.792 1032.5,441.5 Z"/></g>
<g><path style="opacity:1" fill="#f1e4cf" d="M 990.5,827.5 C 990.5,840.167 990.5,852.833 990.5,865.5C 936.088,841.048 881.754,816.548 827.5,792C 816.288,789.848 807.788,793.681 802,803.5C 800.524,808.076 800.19,812.743 801,817.5C 820.932,861.798 840.765,906.131 860.5,950.5C 849.5,950.5 838.5,950.5 827.5,950.5C 749.833,950.333 672.166,950.5 594.5,951C 577.774,953.858 563.44,961.358 551.5,973.5C 538.939,961.921 524.272,954.421 507.5,951C 375.167,950.5 242.834,950.333 110.5,950.5C 110.167,772.165 110.5,593.832 111.5,415.5C 233.084,414.716 354.75,414.549 476.5,415C 483.421,415.131 490.087,416.464 496.5,419C 514.772,428.05 525.938,442.55 530,462.5C 530.333,614.833 530.667,767.167 531,919.5C 532.632,926.469 536.799,931.302 543.5,934C 556.243,937.206 565.41,933.039 571,921.5C 571.234,847.33 571.734,773.164 572.5,699C 571.399,622.503 571.232,546.003 572,469.5C 575.5,436.667 593.667,418.5 626.5,415C 749.297,414.978 870.63,414.811 990.5,414.5C 990.5,552.167 990.5,689.833 990.5,827.5 Z"/></g>
<g><path style="opacity:1" fill="#895333" d="M 1032.5,441.5 C 1035.86,453.443 1043.86,459.776 1056.5,460.5C 1056.75,581.938 1056.75,703.605 1056.5,825.5C 1051.19,816.202 1043.19,812.202 1032.5,813.5C 1032.5,689.5 1032.5,565.5 1032.5,441.5 Z"/></g>
<g><path style="opacity:1" fill="#010201" d="M 40.5,470.5 C 40.3333,647.834 40.5,825.167 41,1002.5C 43.2706,1009.77 48.1039,1014.27 55.5,1016C 92.1826,1016.19 128.849,1016.69 165.5,1017.5C 273.419,1016.46 381.419,1016.3 489.5,1017C 497.027,1018.75 502.027,1023.25 504.5,1030.5C 505.184,1060.35 520.351,1075.68 550,1076.5C 578.676,1076.49 593.676,1062.16 595,1033.5C 597.433,1025.4 602.599,1019.9 610.5,1017C 679.135,1015.52 747.802,1015.02 816.5,1015.5C 827.656,1014.27 835.823,1018.61 841,1028.5C 843.584,1041.83 838.751,1051 826.5,1056C 762.497,1056.17 698.497,1056.67 634.5,1057.5C 624.019,1089.71 602.352,1109.55 569.5,1117C 530.975,1124.12 500.142,1112.29 477,1081.5C 474.486,1076.07 471.82,1070.73 469,1065.5C 467.921,1062.94 467.421,1060.27 467.5,1057.5C 327.5,1057.67 187.5,1057.5 47.5,1057C 29.7654,1052.76 16.0987,1042.92 6.5,1027.5C 3.79566,1021.91 1.46233,1016.24 -0.5,1010.5C -0.5,825.5 -0.5,640.5 -0.5,455.5C 7.37312,442.563 18.0398,439.563 31.5,446.5C 38.4296,452.948 41.4296,460.948 40.5,470.5 Z"/></g>
<g><path style="opacity:1" fill="#010201" d="M 1056.5,825.5 C 1056.75,703.605 1056.75,581.938 1056.5,460.5C 1059.7,449.957 1066.86,443.957 1078,442.5C 1089.38,443.556 1096.38,449.556 1099,460.5C 1099.67,593.833 1099.67,727.167 1099,860.5C 1096.46,871.704 1089.46,878.037 1078,879.5C 1066.54,878.037 1059.54,871.704 1057,860.5C 1056.5,848.838 1056.33,837.171 1056.5,825.5 Z"/></g>
<g><path style="opacity:1" fill="#895333" d="M 40.5,470.5 C 50.1083,478.429 59.7749,478.429 69.5,470.5C 69.3333,639.167 69.5,807.834 70,976.5C 72.5146,983.19 77.0146,988.023 83.5,991C 222.833,991.333 362.167,991.667 501.5,992C 521.46,997.518 531.293,1010.68 531,1031.5C 532.485,1037.25 535.818,1041.58 541,1044.5C 556.368,1050.25 566.534,1045.25 571.5,1029.5C 572.034,1009.81 581.7,997.313 600.5,992C 672.499,991.5 744.499,991.333 816.5,991.5C 812.5,999.5 812.5,1007.5 816.5,1015.5C 747.802,1015.02 679.135,1015.52 610.5,1017C 602.599,1019.9 597.433,1025.4 595,1033.5C 593.676,1062.16 578.676,1076.49 550,1076.5C 520.351,1075.68 505.184,1060.35 504.5,1030.5C 502.027,1023.25 497.027,1018.75 489.5,1017C 381.419,1016.3 273.419,1016.46 165.5,1017.5C 128.849,1016.69 92.1826,1016.19 55.5,1016C 48.1039,1014.27 43.2706,1009.77 41,1002.5C 40.5,825.167 40.3333,647.834 40.5,470.5 Z"/></g>
<g><path style="opacity:1" fill="#f06763" d="M 783.5,506.5 C 810.833,534.5 838.5,562.167 866.5,589.5C 876.465,599.965 886.631,610.298 897,620.5C 897.706,622.971 897.373,625.305 896,627.5C 858.833,664.667 821.667,701.833 784.5,739C 782.305,740.373 779.971,740.706 777.5,740C 765.965,728.298 754.298,716.798 742.5,705.5C 728.833,691.167 714.833,677.167 700.5,663.5C 688.535,651.035 676.369,638.702 664,626.5C 662.813,624.956 662.48,623.289 663,621.5C 689.138,594.361 715.638,567.528 742.5,541C 743.167,540.333 743.833,540.333 744.5,541C 747.369,544.038 750.369,546.871 753.5,549.5C 755.795,552.297 758.295,554.964 761,557.5C 759.654,563.693 759.321,570.026 760,576.5C 762.699,583.365 767.532,588.032 774.5,590.5C 775.666,612.159 775.833,633.826 775,655.5C 758.891,663.163 755.224,674.83 764,690.5C 772.633,698.346 782.133,699.513 792.5,694C 804.049,682.96 804.382,671.627 793.5,660C 791.182,658.007 788.516,656.841 785.5,656.5C 785.333,634.497 785.5,612.497 786,590.5C 787.734,589.362 789.568,588.862 791.5,589C 798.368,596.036 805.368,602.869 812.5,609.5C 813.29,610.794 814.29,611.961 815.5,613C 809.625,626.042 812.959,636.042 825.5,643C 838.894,646.72 848.394,642.22 854,629.5C 855.833,610 847,601.167 827.5,603C 826,603.5 824.5,604 823,604.5C 820.683,603.015 818.516,601.348 816.5,599.5C 810.522,593.187 804.522,586.854 798.5,580.5C 803.551,570.142 801.885,560.975 793.5,553C 785.778,547.767 777.778,547.267 769.5,551.5C 765.48,547.811 761.48,544.145 757.5,540.5C 755.372,537.87 753.039,535.37 750.5,533C 759.743,523.087 769.576,513.92 780,505.5C 781.138,505.989 782.305,506.322 783.5,506.5 Z"/></g>
<g><path style="opacity:1" fill="#545e62" d="M 787.5,497.5 C 786.537,500.744 785.204,503.744 783.5,506.5C 782.305,506.322 781.138,505.989 780,505.5C 769.576,513.92 759.743,523.087 750.5,533C 753.039,535.37 755.372,537.87 757.5,540.5C 756.439,543.622 755.105,546.622 753.5,549.5C 750.369,546.871 747.369,544.038 744.5,541C 743.833,540.333 743.167,540.333 742.5,541C 715.638,567.528 689.138,594.361 663,621.5C 662.48,623.289 662.813,624.956 664,626.5C 676.369,638.702 688.535,651.035 700.5,663.5C 698.609,666.614 697.276,669.948 696.5,673.5C 682.535,660.035 668.701,646.369 655,632.5C 652.165,626.981 651.831,621.314 654,615.5C 692.139,576.361 730.639,537.528 769.5,499C 775.35,495.113 781.35,494.613 787.5,497.5 Z"/></g>
<g><path style="opacity:1" fill="#455055" d="M 757.5,540.5 C 761.48,544.145 765.48,547.811 769.5,551.5C 777.778,547.267 785.778,547.767 793.5,553C 801.885,560.975 803.551,570.142 798.5,580.5C 804.522,586.854 810.522,593.187 816.5,599.5C 815.167,602.833 813.833,606.167 812.5,609.5C 805.368,602.869 798.368,596.036 791.5,589C 789.568,588.862 787.734,589.362 786,590.5C 785.5,612.497 785.333,634.497 785.5,656.5C 788.516,656.841 791.182,658.007 793.5,660C 804.382,671.627 804.049,682.96 792.5,694C 782.133,699.513 772.633,698.346 764,690.5C 755.224,674.83 758.891,663.163 775,655.5C 775.833,633.826 775.666,612.159 774.5,590.5C 767.532,588.032 762.699,583.365 760,576.5C 759.321,570.026 759.654,563.693 761,557.5C 758.295,554.964 755.795,552.297 753.5,549.5C 755.105,546.622 756.439,543.622 757.5,540.5 Z"/></g>
<g><path style="opacity:1" fill="#fcfdfd" d="M 776.5,559.5 C 787.486,558.653 791.986,563.653 790,574.5C 784.07,582.013 777.736,582.346 771,575.5C 768.024,568.462 769.857,563.129 776.5,559.5 Z"/></g>
<g><path style="opacity:1" fill="#404b50" d="M 787.5,497.5 C 816.117,524.45 844.117,552.116 871.5,580.5C 870.071,583.696 868.405,586.696 866.5,589.5C 838.5,562.167 810.833,534.5 783.5,506.5C 785.204,503.744 786.537,500.744 787.5,497.5 Z"/></g>
<g><path style="opacity:1" fill="#010201" d="M 250.5,599.5 C 298.838,599.167 347.171,599.5 395.5,600.5C 410.187,607.212 413.854,617.878 406.5,632.5C 403.707,635.729 400.373,638.229 396.5,640C 347.167,640.667 297.833,640.667 248.5,640C 237.454,635.017 232.954,626.517 235,614.5C 238.081,607.251 243.247,602.251 250.5,599.5 Z"/></g>
<g><path style="opacity:1" fill="#3d484d" d="M 816.5,599.5 C 818.516,601.348 820.683,603.015 823,604.5C 824.5,604 826,603.5 827.5,603C 847,601.167 855.833,610 854,629.5C 848.394,642.22 838.894,646.72 825.5,643C 812.959,636.042 809.625,626.042 815.5,613C 814.29,611.961 813.29,610.794 812.5,609.5C 813.833,606.167 815.167,602.833 816.5,599.5 Z"/></g>
<g><path style="opacity:1" fill="#fcfcfc" d="M 830.5,612.5 C 841.659,612.511 845.826,617.845 843,628.5C 838.752,633.596 833.585,634.763 827.5,632C 820.576,624.275 821.576,617.775 830.5,612.5 Z"/></g>
<g><path style="opacity:1" fill="#3a454a" d="M 871.5,580.5 C 882.798,591.298 893.965,602.298 905,613.5C 909.689,620.728 909.356,627.728 904,634.5C 866.5,672 829,709.5 791.5,747C 784.728,752.356 777.728,752.689 770.5,748C 759.298,736.965 748.298,725.798 737.5,714.5C 738.929,711.304 740.595,708.304 742.5,705.5C 754.298,716.798 765.965,728.298 777.5,740C 779.971,740.706 782.305,740.373 784.5,739C 821.667,701.833 858.833,664.667 896,627.5C 897.373,625.305 897.706,622.971 897,620.5C 886.631,610.298 876.465,599.965 866.5,589.5C 868.405,586.696 870.071,583.696 871.5,580.5 Z"/></g>
<g><path style="opacity:1" fill="#fcfcfc" d="M 778.5,665.5 C 789.136,666.772 792.636,672.439 789,682.5C 783.665,688.634 777.999,688.968 772,683.5C 767.723,675.07 769.89,669.07 778.5,665.5 Z"/></g>
<g><path style="opacity:1" fill="#010201" d="M 201.5,679.5 C 280.167,679.333 358.834,679.5 437.5,680C 445.657,684.167 450.324,690.834 451.5,700C 449.793,710.104 444.127,716.771 434.5,720C 360.5,720.667 286.5,720.667 212.5,720C 210.596,718.642 208.596,718.809 206.5,720.5C 205.5,720.333 204.5,720.167 203.5,720C 199.756,717.315 195.922,714.815 192,712.5C 184.471,698.278 187.638,687.278 201.5,679.5 Z"/></g>
<g><path style="opacity:1" fill="#485358" d="M 700.5,663.5 C 714.833,677.167 728.833,691.167 742.5,705.5C 740.595,708.304 738.929,711.304 737.5,714.5C 723.5,701.167 709.833,687.5 696.5,673.5C 697.276,669.948 698.609,666.614 700.5,663.5 Z"/></g>
<g><path style="opacity:1" fill="#010201" d="M 206.5,757.5 C 281.501,757.333 356.501,757.5 431.5,758C 443.037,760.037 449.704,766.871 451.5,778.5C 450.397,789.246 444.731,796.079 434.5,799C 357.5,799.667 280.5,799.667 203.5,799C 190.515,794.304 185.682,785.137 189,771.5C 192.39,763.595 198.223,758.928 206.5,757.5 Z"/></g>
<g><path style="opacity:1" fill="#010201" d="M 990.5,865.5 C 1022.12,879.818 1053.79,893.985 1085.5,908C 1091.55,910.755 1097.38,913.922 1103,917.5C 1109.15,925.373 1109.99,933.707 1105.5,942.5C 1093.64,955.189 1081.64,967.689 1069.5,980C 1087.67,998.167 1105.83,1016.33 1124,1034.5C 1126.51,1038.63 1128.34,1042.96 1129.5,1047.5C 1129.5,1048.83 1129.5,1050.17 1129.5,1051.5C 1128.09,1055.22 1126.25,1058.89 1124,1062.5C 1106.5,1079.33 1089.33,1096.5 1072.5,1114C 1070.64,1114.68 1068.97,1115.68 1067.5,1117C 1061.06,1117.91 1054.72,1117.58 1048.5,1116C 1029.29,1096.49 1009.79,1077.32 990,1058.5C 977.837,1071.32 965.337,1083.82 952.5,1096C 939.078,1102.31 928.745,1098.98 921.5,1086C 901.451,1040.68 881.118,995.512 860.5,950.5C 840.765,906.131 820.932,861.798 801,817.5C 800.19,812.743 800.524,808.076 802,803.5C 807.788,793.681 816.288,789.848 827.5,792C 881.754,816.548 936.088,841.048 990.5,865.5 Z"/></g>
<g><path style="opacity:1" fill="#010201" d="M 206.5,836.5 C 281.526,836.491 356.526,836.658 431.5,837C 443.277,839.111 449.944,846.111 451.5,858C 449.944,869.889 443.277,876.889 431.5,879C 356.5,879.667 281.5,879.667 206.5,879C 188.462,873.552 183.628,862.385 192,845.5C 195.945,840.866 200.778,837.866 206.5,836.5 Z"/></g>
<g><path style="opacity:1" fill="#fefffe" d="M 863.5,853.5 C 904.599,872.231 945.432,890.898 986,909.5C 1007.42,919.114 1028.92,928.447 1050.5,937.5C 1050.65,938.552 1050.48,939.552 1050,940.5C 1039.88,950.073 1030.22,960.073 1021,970.5C 1017.7,980.217 1019.37,988.884 1026,996.5C 1042.93,1013.05 1059.76,1029.72 1076.5,1046.5C 1077.83,1047.83 1077.83,1049.17 1076.5,1050.5C 1070.72,1056.41 1064.72,1062.07 1058.5,1067.5C 1040.01,1049.51 1021.68,1031.35 1003.5,1013C 994.422,1006.95 985.422,1007.12 976.5,1013.5C 967.097,1023.28 957.597,1032.95 948,1042.5C 919.142,979.738 890.975,916.738 863.5,853.5 Z"/></g>
</svg>
